<svg width="400" height="120" xmlns="http://www.w3.org/2000/svg">
 <style type="text/css">.st0{fill:#EED406;}
	.st1{fill:#F4F4F4;}
	.st2{fill:#55FF8A;}
	.st3{fill:#4AFF54;}
	.st4{fill:#FFD1F7;}
	.st5{fill:#FFCAFF;}
	.st6{fill:#FFFF00;}
	.st7{fill:none;stroke:#FFFFFF;stroke-width:1.5;stroke-linecap:round;}
	.st8{fill:#F6FF2A;}
	.st9{fill:none;stroke:#FFFFFF;stroke-width:2;stroke-linecap:round;}
	.st10{fill:none;stroke:#FFFFFF;}
	.st11{fill:#FF5F5F;}
	.st12{fill:#FFFFFF;}
	.st13{fill:#FF1F20;}
	.st14{opacity:0.75;fill:none;stroke:#FFFFFF;stroke-width:5;enable-background:new    ;}
	.st15{fill:none;stroke:#FFFFFF;stroke-width:5;}
	.st16{fill:#FFFFA9;}
	.st17{opacity:0.5;fill:#00FFFF;enable-background:new    ;}
	.st18{opacity:0.6;fill:#46FF35;enable-background:new    ;}
	.st19{opacity:0.8;fill:#AE00FF;enable-background:new    ;}
	.st20{opacity:0.9;fill:#FFBB00;enable-background:new    ;}
	.st21{opacity:0.51;fill:#FFFFFF;enable-background:new    ;}
	.st22{opacity:0.5;fill:#FF0000;enable-background:new    ;}
	.st23{opacity:0.7;fill:#FFFF00;enable-background:new    ;}
	.st24{fill:#A0FFFF;}
	.st25{fill:#74FFFF;}
	.st26{fill:#FFE600;}
	.st27{fill:#494949;}
	.st28{fill:#696969;}
	.st29{fill:#6B6B6B;}
	.st30{fill:#BC0F0F;}
	.st31{fill:#303030;}</style>

 <g>
  <title>background</title>
  <rect fill="none" id="canvas_background" height="402" width="582" y="-1" x="-1"/>
 </g>
 <g>
  <title>Layer 1</title>
  <g id="Layer_5">
   <path id="svg_1" d="m179.6,58.1c1,0.5 1.7,1 2.4,1.6c0.9,0.7 1.9,1.5 3,2c0.4,0.2 0.8,0.5 1.2,0.7c0.4,-0.4 0.1,-0.7 -0.1,-0.8c-0.9,-0.9 -1.5,-2 -2.3,-2.9c-0.5,-0.6 -1,-1.3 -1.3,-2c-0.6,-1.1 -1.1,-2.2 -1.6,-3.4c-0.5,-1.1 -1,-2.3 -1.4,-3.4c-0.3,-0.8 -0.6,-1.6 -0.8,-2.5c-0.2,-0.8 -0.4,-1.6 -0.6,-2.4c-0.1,-0.4 -0.2,-0.8 -0.3,-1.1c-0.1,-0.8 -0.5,-1.5 -0.4,-2.4c-0.3,-0.5 0,-1 -0.3,-1.5c-0.2,-0.5 0,-1 -0.2,-1.5c-0.3,-0.9 -0.1,-1.9 -0.2,-2.8c0,-0.2 0.1,-0.3 0.2,-0.6c0.2,0.2 0.3,0.3 0.4,0.4c-0.1,0.1 -0.1,0.2 -0.2,0.3c0.1,0 0.2,0.1 0.3,0.1c0.1,0.2 0.2,0.5 0.3,0.7c-0.1,0.1 -0.1,0.1 -0.2,0.2c0.1,0 0.2,0.1 0.3,0.1c0.1,0.2 0.2,0.4 0.3,0.6c0.6,1.3 1.3,2.6 2.1,3.8c0.5,0.8 0.9,1.6 1.5,2.3c0.4,0.5 0.7,1.1 1,1.6c0.6,0.9 1.2,1.7 1.8,2.6c0.7,1.1 1.5,2.1 2.2,3.1c0.2,0.3 0.5,0.5 0.7,0.8c0.1,0.3 0.5,0.6 0.7,0.8c0.1,0.1 0.2,0.1 0.4,0.1c-0.1,-0.3 -0.1,-0.6 -0.2,-0.8c-0.4,-0.5 -0.3,-1 -0.5,-1.5c-0.2,-0.5 -0.4,-1 -0.5,-1.5c0,-0.5 -0.3,-0.9 -0.5,-1.4c0,-0.1 -0.1,-0.3 -0.1,-0.4c0.3,0 0.5,0 0.7,0c0.8,1.5 1.5,3 2.3,4.4c0.4,0.8 0.9,1.6 1.4,2.4c0.5,1 1,1.9 1.6,2.9c0.9,1.6 1.8,3.3 2.7,4.9c0.4,0.6 0.8,1.2 1.1,1.8c0.4,0.6 0.8,1.2 1.1,1.9c0.6,-0.2 1.1,-0.5 1.8,-0.6c0.2,0 0.4,-0.1 0.6,-0.1c0.5,0 1,0 1.5,0c0.5,0 1,0.2 1.5,0.2c0.5,0 0.9,0.2 1.4,0.3c0.5,-0.2 0.8,-0.7 1.1,-1.1c0.4,-0.5 0.9,-1 1.3,-1.5c0.3,-0.6 0.8,-1 1.2,-1.6c0.7,-1 1.5,-2.1 2.2,-3.1c0.6,-1 1.3,-2 2,-3c0,0 0.1,-0.1 0.1,-0.1c0,-0.6 0.5,-0.9 0.8,-1.4c0.4,-0.9 1.1,-1.6 1.4,-2.5c0.2,-0.5 0.6,-0.9 0.8,-1.5c0.1,-0.5 0.6,-1 0.9,-1.4c0.1,-0.1 0.1,-0.2 0.1,-0.3c0.1,0 0.2,0 0.3,-0.1c-0.1,-0.1 -0.1,-0.1 -0.2,-0.2c0.4,-0.2 0.5,-0.4 0.4,-0.7c0.3,0 0.5,0 0.8,0c0,0.1 0,0.2 0,0.2c-0.1,0 -0.2,0.1 -0.4,0.1c0.1,0.2 0.2,0.3 0.2,0.5c-0.2,0.1 -0.3,0.1 -0.4,0.2c0.1,0.2 0.3,0.6 0.2,0.7c-0.2,0.2 0,0.5 -0.2,0.7c-0.3,0.4 -0.1,0.8 -0.3,1.1c-0.2,0.5 -0.2,1 -0.3,1.6c0.7,-0.2 1.1,-0.6 1.5,-1c0.3,-0.3 0.6,-0.6 0.9,-0.9c0.7,-0.6 1.3,-1.4 1.9,-2.1c0.4,-0.5 0.9,-1 1.3,-1.5c0.6,-0.7 1.1,-1.6 1.8,-2.3c0.2,-0.3 0.2,-0.7 0.7,-0.9c0.3,-0.1 0.4,-0.5 0.6,-0.8c0.2,-0.2 0.3,-0.5 0.5,-0.7c0.5,-0.7 1,-1.5 1.4,-2.2c0.1,-0.1 0.1,-0.3 0.1,-0.4c0.1,-0.1 0.3,-0.2 0.4,-0.4c0,0 0.1,0.1 0.1,0.1c0.1,0.9 -0.3,1.7 -0.4,2.5c-0.4,0.3 0,0.7 -0.3,1c-0.2,0.2 -0.1,0.7 -0.2,1c-0.2,0.6 -0.3,1.2 -0.6,1.8c-0.5,1.2 -0.8,2.4 -1.3,3.5c-0.2,0.5 -0.5,0.9 -0.4,1.4c-0.3,0.6 -0.5,1.1 -0.8,1.7c-0.6,1.2 -1.1,2.4 -2,3.5c-0.4,0.5 -0.6,1.1 -1.1,1.6c-0.4,0.4 -0.6,0.9 -1,1.3c-0.6,0.6 -0.9,1.3 -1.6,1.9c-0.3,0.2 -0.4,0.6 -0.5,0.9c0.3,0.3 0.6,-0.1 0.9,-0.1c0.6,-0.6 1.5,-0.7 2.3,-1.2c1.1,-0.7 2.4,-1.2 3.4,-2c0.3,-0.2 0.6,-0.4 1,-0.6c0.2,0 0.4,0 0.6,0c0.2,0.4 -0.2,0.3 -0.3,0.4c0,0.1 0,0.2 0,0.3c-0.5,0.4 -1,0.8 -1.3,1.4c-0.3,0.5 -1.1,0.8 -1.3,1.4c-1.7,1.4 -3.3,2.9 -5,4.3c-0.4,0 -0.5,0.4 -0.8,0.6c-0.5,0.4 -1.1,0.8 -1.6,1.1c-0.1,0.1 -0.1,0.2 -0.2,0.3c0.5,0 0.9,0.1 1.3,-0.1c0.1,0 0.2,-0.1 0.3,-0.1c1.1,0.1 2.1,-0.2 3.1,-0.2c0.6,0 1.2,-0.1 1.8,-0.2c0,0.2 0,0.4 0,0.7c-1.3,0.9 -2.6,1.8 -4.4,2c-0.4,0 -0.7,0.3 -1.1,0.3c-0.4,0 -0.8,0.1 -1.2,0.2c-0.4,0.1 -0.8,0.1 -1.1,0.3c-0.6,0.2 -3.5,0.3 -4.1,0.2c-1.2,-0.3 -2.5,-0.3 -3.6,-0.8c-0.2,-0.1 -0.5,-0.1 -0.7,-0.1c-0.4,-0.1 -0.8,-0.2 -1.2,-0.4c-0.3,-0.2 -0.7,-0.2 -1.1,-0.2c-1.3,0 -2.5,0 -3.8,0c-0.8,0 -1.6,0.1 -2.4,0.4c-1.1,0.4 -2.2,0.6 -3.3,0.9c-0.1,0 -0.1,0 -0.2,0c-0.8,0.1 -1.6,0.1 -2.3,0.2c-0.8,0 -1.6,0 -2.3,0c-0.5,0 -0.9,-0.2 -1.4,-0.3c-1.6,-0.4 -3.1,-0.9 -4.6,-1.5c-0.1,-0.1 -0.2,-0.2 -0.5,-0.3c0.7,0 1.3,0 2,0c0.6,0 1.2,0.1 1.7,0c0.6,-0.1 1.1,-0.1 1.6,-0.1c0,-0.1 0.1,-0.2 0.1,-0.3c0.3,0 0.7,0 1.2,0c-0.1,-0.2 -0.2,-0.3 -0.3,-0.5c-0.3,0 -0.7,0.1 -0.9,-0.3c-1,-0.3 -1.7,-1 -2.6,-1.4c-0.1,-0.1 -0.2,-0.2 -0.3,-0.3c-0.5,-0.5 -1.1,-0.9 -1.7,-1.4c-0.6,-0.6 -1.2,-1.2 -1.8,-1.8c-0.2,-0.3 -0.4,-0.6 -0.7,-0.8c-0.2,-0.2 -0.3,-0.4 -0.3,-0.6c0,-0.1 -0.1,-0.2 -0.2,-0.3c-0.3,-0.5 -0.6,-1 -0.5,-1.7zm14.1,9c-1.9,-1.9 -3.6,-3.7 -5,-5.9c0,-0.2 0,-0.4 0.1,-0.8c0.6,0.9 1.3,1.5 2,2c0.2,0.3 0.3,0.6 0.8,0.8c0.4,0.2 0.7,0.7 1.1,1c0.8,0.7 1.6,1.3 2.3,1.9c0.3,0 0.5,0 0.7,0c-0.1,-0.2 -0.1,-0.4 -0.2,-0.6c-0.2,-0.2 -0.5,-0.5 -0.8,-0.6c-0.3,-0.1 -0.4,-0.3 -0.6,-0.5c-0.6,-0.5 -1.1,-1.2 -1.8,-1.6c-0.4,-0.2 -0.7,-0.5 -1,-0.8c-0.6,-0.8 -1.5,-1.5 -2.1,-2.3c-0.4,-0.5 -0.9,-1 -1.3,-1.5c-0.3,-0.3 -0.3,-0.7 -0.6,-1c-1,-0.9 -1.5,-2.1 -2.4,-3c-0.4,-0.4 -0.8,-1 -1,-1.5c-0.4,-1 -1.2,-1.9 -1.4,-3c0,-0.1 -0.3,-0.2 -0.4,-0.3c-0.1,0.5 -0.1,0.5 0,0.7c0.1,0.2 0.2,0.4 0.3,0.7c0,0.7 0.4,1.3 0.6,2c0.6,1.8 1.5,3.6 2.5,5.3c0.9,1.5 1.7,2.9 2.8,4.3c0.4,0.5 0.9,1 1.3,1.5c0.4,0.4 0.8,0.8 1.1,1.2c0.7,0.9 1.7,1.6 2.6,2.3c0.1,-0.1 0.2,-0.2 0.4,-0.3zm22.3,-7.8c0.2,-0.1 0.5,-0.2 0.6,-0.4c0.6,-0.8 1.2,-1.7 1.8,-2.5c0.3,-0.5 0.6,-1 1,-1.5c0.4,-0.5 0.8,-1 1,-1.6c0,0 0.1,-0.1 0.1,-0.1c0.3,-0.5 0.7,-1 0.9,-1.6c0.1,-0.3 0.4,-0.7 0.1,-1.2c-1.3,1.6 -2.6,3.2 -4,4.7c-1.4,1.6 -3,3 -4.4,4.5c0,0.2 0,0.4 0,0.6c0.3,-0.2 0.6,-0.4 0.9,-0.5c0,0 0.1,0 0.2,0c0,0.2 0,0.4 0,0.6c-1.2,1.6 -2.3,3.2 -3.5,4.8c0.1,0.1 0.2,0.2 0.2,0.2c-0.1,0.1 -0.1,0.1 -0.2,0.2c0.6,0 0.7,0 0.7,-0.3c0.1,-0.4 0.4,-0.4 0.6,-0.5c-0.2,-0.4 0.2,-0.5 0.5,-0.7c0.1,-0.6 0.4,-1 1,-1.2c0,-0.1 0,-0.2 0,-0.4c0.1,0 0.2,-0.1 0.3,-0.1c0.3,-0.8 0.8,-1.5 1.6,-2.1c0,-0.1 0,-0.2 0,-0.3c0.2,0 0.2,0 0.4,-0.1c0.2,-0.2 0.2,-0.4 0.2,-0.5z" class="st0"/>
   <path id="svg_2" d="m194.2,98.5c-0.4,-0.4 -0.7,-0.8 -0.1,-1.3c0.4,-0.2 1.1,-0.1 1.7,-0.2c0.8,-0.1 1.7,0 2.5,-0.2c1.3,-0.2 2.6,-0.1 3.9,-0.1c1.3,0 2.7,-0.1 4,0c0.7,0.1 1.5,0 2.2,0.2c0.6,0.1 1.2,0.1 1.9,0.1c0.3,0 0.6,0.1 0.9,0.2c0,0.3 0,0.6 0,0.9c-0.1,0.1 -0.3,0.2 -0.5,0.4c-0.4,0 -0.8,0 -1.2,0c-0.5,0 -0.9,0 -1.4,0c-0.4,0 -0.8,0.1 -1.3,0.2c1.1,0.3 2.1,0.4 3,0.9c-0.4,0.4 -0.7,0.7 -1.1,1c-0.6,0.4 -1.2,0.8 -1.8,1.2c-0.6,0.4 -1.2,0.5 -2,0.3c-0.2,0 -0.4,0 -0.6,0c-1.6,0 -3.2,0 -4.8,0c-0.4,0 -0.7,-0.1 -1,-0.2c-1,-0.7 -2,-1.5 -3,-2.2c0.4,-0.7 1,-0.6 1.8,-0.6c0.1,-0.1 0.2,-0.2 0.2,-0.3c0.3,0 0.5,0 0.8,0c0,-0.1 0,-0.1 -0.1,-0.1c-0.3,-0.1 -0.6,-0.2 -1,-0.2c-1,0 -2,0 -3,0z" class="st1"/>
   <path id="svg_3" d="m192.7,95.9c-0.1,0.5 -0.5,0.9 -0.7,1.3c-0.3,0.9 -0.3,1.8 0.1,2.7c0.1,0.3 0.2,0.5 0.4,0.8c-0.2,0 -0.4,0 -0.6,0c-0.5,-0.6 -1.1,-1.2 -1.3,-2.1c-0.1,-0.4 -0.2,-0.8 0,-1.1c0.1,-0.1 0,-0.2 0,-0.3c1.4,-1.3 1.3,-1.2 2.1,-1.3z" class="st1"/>
   <path id="svg_4" d="m212.6,95.8c1.1,0.3 1.8,0.8 2.2,1.9c0.1,0.6 -0.1,1.4 -0.6,2.1c-0.3,0.4 -0.4,0.8 -1.1,1c-0.2,-0.7 0.2,-1.1 0.4,-1.5c0,-0.3 -0.1,-0.5 -0.1,-0.7c0,-0.8 0,-1.6 -0.7,-2.2c-0.2,-0.2 -0.1,-0.4 -0.1,-0.6z" class="st1"/>
  </g>
  <g id="Layer_1">
   <path id="svg_5" d="m16.5,8.5c0.3,0.1 0.4,0.5 0.2,0.8c-0.1,0.1 -0.1,0.2 -0.2,0.2l-11.4,7c-0.5,0.3 -0.8,0.1 -0.8,-0.5l0,-14c0,-0.5 0.4,-0.8 0.8,-0.5l11.4,7z" class="st2"/>
   <path id="svg_6" d="m24,1l2.2,0c0.6,0 1,0.4 1,1l0,14c0,0.6 -0.4,1 -1,1l-2.2,0c-0.6,0 -1,-0.4 -1,-1l0,-14c0,-0.5 0.4,-1 1,-1zm9.8,0l2.2,0c0.6,0 1,0.4 1,1l0,14c0,0.6 -0.4,1 -1,1l-2.2,0c-0.6,0 -1,-0.4 -1,-1l0,-14c0,-0.5 0.4,-1 1,-1z" class="st3"/>
   <path id="svg_7" d="m81,1.4c0,-0.6 0.4,-1 1,-1l5.4,0c0.6,0 0.7,0.3 0.3,0.7l-6,6c-0.4,0.4 -0.7,0.3 -0.7,-0.3c0,0 0,-5.4 0,-5.4zm0,15.8c0,0.6 0.4,1 1,1l5.4,0c0.6,0 0.7,-0.3 0.3,-0.7l-6,-6c-0.4,-0.4 -0.7,-0.3 -0.7,0.3c0,0 0,5.4 0,5.4zm17.8,-15.8c0,-0.6 -0.4,-1 -1,-1l-5.4,0c-0.6,0 -0.7,0.3 -0.3,0.7l6,6c0.4,0.4 0.7,0.3 0.7,-0.3c0,0 0,-5.4 0,-5.4zm0,15.8c0,0.6 -0.4,1 -1,1l-5.4,0c-0.6,0 -0.7,-0.3 -0.3,-0.7l6,-6c0.4,-0.4 0.7,-0.3 0.7,0.3c0,0 0,5.4 0,5.4z" class="st4"/>
   <path id="svg_8" d="m112.7,5c0,0.6 0.4,1 1,1l4.1,0c0.6,0 0.7,-0.3 0.3,-0.7l-4.7,-4.7c-0.4,-0.4 -0.7,-0.3 -0.7,0.3c0,0 0,4.1 0,4.1zm-7.1,1c0.6,0 1,-0.4 1,-1l0,-4.1c0,-0.6 -0.3,-0.7 -0.7,-0.3l-4.7,4.7c-0.4,0.4 -0.3,0.7 0.3,0.7c0,0 4.1,0 4.1,0zm1,7.1c0,-0.6 -0.4,-1 -1,-1l-4.1,0c-0.6,0 -0.7,0.3 -0.3,0.7l4.7,4.7c0.4,0.4 0.7,0.3 0.7,-0.3c0,0 0,-4.1 0,-4.1zm7.1,-1c-0.6,0 -1,0.4 -1,1l0,4.1c0,0.5 0.3,0.7 0.7,0.3l4.7,-4.7c0.4,-0.4 0.3,-0.7 -0.3,-0.7c0,0 -4.1,0 -4.1,0z" class="st5"/>
   <path id="svg_9" d="m67,5.8c-0.5,0.4 -1.2,0.6 -1.8,0.6l-3.2,0c-0.6,0 -1,0.4 -1,1l0,5.7c0,0.6 0.4,1 1,1l4.2,0c0.3,0.2 0.5,0.4 0.8,0.6l3.5,2.6c0.4,0.3 0.8,0.1 0.8,-0.4l0,-13.4c0,-0.5 -0.4,-0.7 -0.8,-0.4l-3.5,2.7z" class="st6"/>
   <path id="svg_10" d="m73.9,2.5c0,0 3.9,-0.8 3.9,7.7s-3.9,7.8 -3.9,7.8" class="st7"/>
   <path id="svg_11" d="m72.6,6.4c0,0 2.6,-0.4 2.6,3.8s-2.6,3.9 -2.6,3.9" class="st7"/>
   <path id="svg_12" d="m47,5.8c-0.5,0.4 -1.2,0.6 -1.8,0.6l-3.2,0c-0.6,0 -1,0.4 -1,1l0,5.7c0,0.6 0.4,1 1,1l4.2,0c0.3,0.2 0.5,0.4 0.8,0.6l3.5,2.6c0.4,0.3 0.8,0.1 0.8,-0.4l0,-13.4c0,-0.5 -0.4,-0.7 -0.8,-0.4l-3.5,2.7z" class="st8"/>
   <path id="svg_13" d="m52.8,7l5.4,5.4m-5.4,0l5.4,-5.4" class="st9"/>
   <path id="svg_14" d="m128.7,8.6c-6.2,-4.2 -6.5,7.8 0,3.9m6.5,-3.9c-6.2,-4.2 -6.5,7.8 0,3.9" class="st10"/>
   <path id="svg_15" d="m122.2,3.4l15.7,0l0,13.1l-15.7,0l0,-13.1zm-1.4,-1.4l0,15.7l18.3,0l0,-15.7l-18.3,0z" class="st11"/>
   <path id="svg_16" d="m143.2,3l14,0c1.1,0 2,0.9 2,2l0,10c0,1.1 -0.9,2 -2,2l-14,0c-1.1,0 -2,-0.9 -2,-2l0,-10c0,-1.1 0.9,-2 2,-2z" class="st12"/>
   <path id="svg_17" d="m146.4,13.8c-0.8,0 -1.6,-0.4 -2.1,-1c-1.1,-1.4 -1,-3.4 0.1,-4.8c0.5,-0.6 2,-1.7 4.6,0.2l-0.6,0.8c-1.4,-1 -2.6,-1.1 -3.3,-0.3c-0.8,1 -0.8,2.4 -0.1,3.5c0.7,0.9 1.9,0.8 3.4,-0.1l0.5,0.9c-0.7,0.5 -1.6,0.7 -2.5,0.8l0,0zm7.5,0c-0.8,0 -1.6,-0.4 -2.1,-1c-1.1,-1.4 -1,-3.4 0.1,-4.8c0.5,-0.6 2,-1.7 4.6,0.2l-0.5,0.8c-1.4,-1 -2.6,-1.1 -3.3,-0.3c-0.8,1 -0.8,2.4 -0.1,3.5c0.7,0.9 1.9,0.8 3.4,-0.1l0.5,0.9c-0.8,0.5 -1.7,0.7 -2.6,0.8l0,0z" class="st13"/>
   <path id="svg_18" d="m2.5,79c0,-20.7 16.8,-37.5 37.5,-37.5s37.5,16.8 37.5,37.5s-16.8,37.5 -37.5,37.5s-37.5,-16.8 -37.5,-37.5z" class="st14"/>
   <path id="svg_19" d="m82.5,79c0,-20.7 16.8,-37.5 37.5,-37.5s37.5,16.8 37.5,37.5s-16.8,37.5 -37.5,37.5s-37.5,-16.8 -37.5,-37.5z" class="st15"/>
   <circle id="svg_20" r="8.1" cy="47.1" cx="201.9" class="st16"/>
   <circle id="svg_21" r="5" cy="79" cx="233.9" class="st17"/>
   <circle id="svg_22" r="6" cy="110.9" cx="201.9" class="st18"/>
   <circle id="svg_23" r="7" cy="79" cx="170.1" class="st19"/>
   <circle id="svg_24" r="7.5" cy="56.3" cx="178.2" class="st20"/>
   <circle id="svg_25" r="4.5" cy="56.1" cx="226.3" class="st21"/>
   <circle id="svg_26" r="5.5" cy="102.8" cx="225.8" class="st22"/>
   <circle id="svg_27" r="6.5" cy="102.8" cx="178.2" class="st23"/>
   <path id="svg_28" d="m178,9.4c0,0.4 -0.4,0.7 -0.9,0.7c-0.1,0 -0.2,0 -0.2,-0.1l-4.9,-1.8c-0.5,-0.2 -0.6,-0.6 -0.1,-0.8l6.2,-3.6c0.5,-0.3 0.8,-0.1 0.7,0.5l-0.8,5.1l0,0z" class="st24"/>
   <path id="svg_29" d="m169.4,15.9c-1,0 -2,-0.2 -2.9,-0.7c-2,-1 -3.2,-3 -3.2,-5.2c0.1,-3.4 2.9,-6 6.3,-6c2.5,0.1 4.8,1.7 5.6,4.1l0.1,-0.1l2.1,1.1c-0.6,-4.4 -4.7,-7.5 -9.1,-6.9c-3.9,0.6 -6.9,3.9 -7,7.9c0,2.9 1.7,5.6 4.3,7c1.2,0.6 2.5,0.9 3.8,1c2.6,0 5,-1.2 6.6,-3.3l-1.8,-0.9c-1.2,1.2 -3,2 -4.8,2l0,0z" class="st25"/>
   <path id="svg_30" d="m183.4,3.2c0.8,0 1.5,0.7 1.5,1.5s-0.7,1.5 -1.5,1.5s-1.5,-0.7 -1.5,-1.5c0,-0.9 0.7,-1.5 1.5,-1.5zm5.1,0l8.5,0c0.9,0 1.5,0.7 1.5,1.5s-0.7,1.5 -1.5,1.5l-8.5,0c-0.9,0 -1.5,-0.7 -1.5,-1.5c-0.1,-0.9 0.6,-1.5 1.5,-1.5zm-5.1,5c0.8,0 1.5,0.7 1.5,1.5s-0.7,1.5 -1.5,1.5s-1.5,-0.7 -1.5,-1.5c0,-0.9 0.7,-1.5 1.5,-1.5zm5.1,0l8.5,0c0.9,0 1.5,0.7 1.5,1.5s-0.7,1.5 -1.5,1.5l-8.5,0c-0.9,0 -1.5,-0.7 -1.5,-1.5c-0.1,-0.9 0.6,-1.5 1.5,-1.5zm-5.1,5c0.8,0 1.5,0.7 1.5,1.5s-0.7,1.5 -1.5,1.5s-1.5,-0.7 -1.5,-1.5c0,-0.9 0.7,-1.5 1.5,-1.5zm5.1,0l8.5,0c0.9,0 1.5,0.7 1.5,1.5s-0.7,1.5 -1.5,1.5l-8.5,0c-0.9,0 -1.5,-0.7 -1.5,-1.5c-0.1,-0.9 0.6,-1.5 1.5,-1.5z" class="st12"/>
  </g>
  <g id="Layer_3">
   <g id="XMLID_2_">
    <g id="svg_31">
     <path id="svg_32" d="m159.3,51.8c0,0 0,0.1 0,0.2c-1.7,1 -1.8,2.6 -1.8,4.5c0.1,15.3 0.1,30.6 0,45.9c0,0.5 -0.4,1 -0.7,1.5c-0.1,0.2 -0.3,0.2 -0.4,0.4c-2.8,3.2 -6.3,3.8 -10.3,3.7c-8.6,-0.1 -17.2,-0.1 -25.8,-0.1l0,-3.9c4.2,0 8.4,0 12.6,0c-2.2,-7 -4.3,-13.9 -6.4,-20.7c-0.1,-0.2 -0.5,-0.5 -0.8,-0.5c-5.2,0 -10.3,0 -15.5,0l-2.5,-0.6c2.8,-10.1 5.5,-20.3 8.3,-30.4c3.5,0 7,0 10.5,0c4.5,15.6 9.1,31.2 13.7,47.2c0.1,-0.6 0.1,-0.8 0.1,-1c0,-14.1 0,-28.1 0,-42.2c0,-1.5 -0.3,-2.5 -1.5,-3.2c-0.2,-0.1 -0.4,-0.4 -0.8,-0.7c7.3,-0.1 14.3,-0.1 21.3,-0.1zm-48.2,26.9c4.7,0 9.2,0 13.9,0c-2.5,-7.7 -5.1,-15.4 -7.7,-23.4c-2.1,8 -4.1,15.6 -6.2,23.4z" class="st26"/>
     <path id="svg_33" d="m120.2,104l0,3.9c-9.1,0 -18.2,0 -27.4,0c-0.6,0 -1.2,-0.2 -1.7,-0.5c-1.6,-1.1 -3.1,-2.3 -4.6,-3.4c-0.6,-0.4 -0.8,-0.9 -0.8,-1.7c0,-15.1 0,-30.2 0,-45.3c0,-1.9 0.5,-4.1 -2.1,-4.9c0.1,-0.1 0.2,-0.2 0.4,-0.3c7,0 14,0 20.9,0c0,0.1 0,0.2 0,0.2c-1.9,1 -2.2,2.7 -2.2,4.8c0.1,13.9 0,27.9 0,41.8c0,0.2 0,0.3 0.2,0.6c1.6,-5.7 3.1,-11.4 4.7,-17.1l2.5,0.6c-1.9,7.1 -3.8,14.1 -5.7,21.2c5.3,0.1 10.6,0.1 15.8,0.1z" class="st26"/>
    </g>
    <g id="svg_34"/>
   </g>
   <path id="svg_35" d="m8.9,51.8c-0.1,0.1 -0.2,0.2 -0.3,0.3c2.1,1 1.7,3.1 1.7,5.1c0,15 0,30 0,45c0,0.9 0.2,1.5 0.8,2c1.3,1 2.5,2.2 3.7,3.2c0.5,0.4 1.1,0.7 1.7,0.7c15,0 30,0 45,0c1.7,0 3.4,0.5 5,-0.2c1.5,-0.6 2.7,-2.3 4.1,-3.6c0,0 0.1,0 0.1,-0.1c0.6,-0.5 0.8,-1.1 0.8,-2c0,-15.3 0,-30.6 -0.1,-45.9c0,-1.8 0.2,-3.2 1.5,-4.1c0,0 0,-0.1 0,-0.2c-5.9,0 -11.8,0 -17.9,0c0.3,0.3 0.4,0.6 0.6,0.7c1,0.7 1.2,1.8 1.2,3.3c0,13.9 0,27.8 0,41.7c0,0.3 0,0.7 -0.1,1c-0.1,0 -0.1,0 -0.2,0c-3.7,-15.8 -7.6,-31.4 -11.5,-46.9c-3,0 -5.9,0 -8.9,0c-3.7,15.8 -7.4,31.6 -11.1,47.4c-0.2,-0.3 -0.2,-0.6 -0.2,-0.8c0,-13.9 0,-27.8 0,-41.7c0,-2 0.1,-3.7 1.7,-4.6c0.1,0 0.1,-0.2 0.1,-0.3c-5.9,0 -11.8,0 -17.7,0z"/>
   <path id="svg_36" d="m8.9,51.8c5.9,0 11.8,0 17.7,0c0,0.1 0,0.3 -0.1,0.3c-1.6,0.9 -1.7,2.5 -1.7,4.6c0.1,13.9 0,27.8 0,41.7c0,0.3 0,0.5 0.2,0.8c3.7,-15.8 7.4,-31.6 11.1,-47.4c3,0 5.9,0 8.9,0c3.9,15.6 7.7,31.1 11.6,46.7c0.1,0 0.1,0 0.2,0c0,-0.3 0.1,-0.7 0.1,-1c0,-13.9 0,-27.8 0,-41.7c0,-1.4 -0.2,-2.5 -1.2,-3.3c-0.2,-0.1 -0.3,-0.4 -0.6,-0.7c6.1,0 12,0 17.9,0c0,0.1 0,0.2 0,0.2c-1.3,0.9 -1.5,2.3 -1.5,4.1c0.1,15.3 0,30.6 0.1,45.9c0,0.9 -0.2,1.5 -0.8,2c0,0 -0.1,0 -0.1,0.1c-1.3,1.2 -2.6,3 -4.1,3.6c-1.5,0.6 -3.3,0.2 -5,0.2c-15,0 -30,0 -45,0c-0.6,0 -1.2,-0.3 -1.7,-0.7c-1.3,-1 -2.5,-2.2 -3.7,-3.2c-0.6,-0.5 -0.8,-1 -0.8,-2c0,-15 0,-30 0,-45c0,-1.9 0.5,-4.1 -1.7,-5.1c0,0 0.1,-0.1 0.2,-0.1z" class="st27"/>
   <path id="svg_37" d="m26.2,103.9c8.1,0 16.1,0 24.2,0c-1.8,-6.9 -3.6,-13.8 -5.5,-20.5c-0.1,-0.3 -0.5,-0.6 -0.8,-0.7c-4.2,0 -8.3,0 -12.5,0c-0.3,0 -0.7,0.4 -0.8,0.7c-1.4,6.8 -3,13.6 -4.6,20.5z" class="st12"/>
   <path id="svg_38" d="m43.8,78.6c-2.2,-7.8 -4.3,-15.4 -6.4,-23.1c-0.1,0 -0.1,0 -0.2,0c-1.7,7.7 -3.5,15.3 -5.2,23.1c4,0 7.8,0 11.8,0z" class="st12"/>
   <path id="svg_39" d="m105.4,103.9c8.9,0 17.7,0 26.6,0c-2,-6.9 -4,-13.8 -6,-20.5c-0.1,-0.3 -0.6,-0.6 -0.9,-0.7c-4.6,0 -9.1,0 -13.7,0c-0.3,0 -0.8,0.4 -0.9,0.7c-1.7,6.8 -3.4,13.6 -5.1,20.5z" class="st12"/>
   <path id="svg_40" d="m124.7,78.6c-2.4,-7.8 -4.7,-15.4 -7.1,-23.1c-0.1,0 -0.1,0 -0.2,0c-1.9,7.7 -3.8,15.3 -5.7,23.1c4.3,0 8.6,0 13,0z" class="st12"/>
   <path id="svg_41" d="m131.4,103.1c-8.4,0 -16.7,0 -25.1,0c1.7,-6.9 3.4,-13.6 5,-20.5c4.6,0 9.1,0 13.7,0c0.2,0 0.6,0.3 0.7,0.5c1.9,6.6 3.8,13.3 5.7,20z" class="st28"/>
   <path id="svg_42" d="m124.5,78.7c-4.1,0 -8.1,0 -12.3,0c1.8,-7.5 3.6,-14.8 5.5,-22.6c2.3,7.8 4.5,15.2 6.8,22.6z" class="st29"/>
   <g id="XMLID_3_">
    <g id="svg_43">
     <path id="svg_44" d="m124.5,78.7c-2.2,-7.4 -4.5,-14.9 -6.8,-22.6c-1.9,7.7 -3.7,15.1 -5.5,22.6c4.1,0 8.2,0 12.3,0zm13.5,-22.1c0,-1.4 -0.3,-2.4 -1.3,-3.1c-0.2,-0.1 -0.4,-0.4 -0.7,-0.7c6.3,0 12.5,0 18.7,0c0,0 0,0.1 0,0.2c-1.5,0.9 -1.6,2.5 -1.6,4.3c0.1,14.7 0.1,29.5 0,44.2c0,0.5 -0.4,1 -0.6,1.5c-0.1,0.2 -0.3,0.2 -0.4,0.4c-2.5,3 -5.5,3.7 -9.1,3.6c-7.6,-0.1 -15.2,-0.1 -22.8,-0.1l0,-3.8c3.7,0 7.4,0 11.1,0c-1.9,-6.7 -3.8,-13.3 -5.7,-19.9c-0.1,-0.2 -0.4,-0.5 -0.7,-0.5c-4.6,0 -9.1,0 -13.7,0l-2.2,-0.6c2.4,-9.8 4.9,-19.5 7.3,-29.3c3.1,0 6.2,0 9.3,0c4,15 8,30.1 12.2,45.5c0,-0.6 0.1,-0.8 0.1,-1c0.1,-13.5 0.1,-27.1 0.1,-40.7z" class="st30"/>
     <path id="svg_45" d="m111.3,82.6c-1.7,6.8 -3.3,13.6 -5,20.5c4.7,0 9.3,0 14,0l0,3.8c-8.1,0 -16.1,0 -24.2,0c-0.5,0 -1.1,-0.2 -1.5,-0.5c-1.4,-1.1 -2.7,-2.2 -4.1,-3.3c-0.6,-0.4 -0.8,-0.9 -0.8,-1.7c0,-14.5 0,-29.1 0,-43.6c0,-1.9 0.4,-4 -1.9,-4.8c0.1,-0.1 0.2,-0.2 0.3,-0.3c6.2,0 12.3,0 18.5,0c0,0.1 0,0.2 0,0.2c-1.7,1 -1.9,2.6 -1.9,4.7c0.1,13.4 0,26.9 0,40.3c0,0.2 0,0.3 0.2,0.5c1.4,-5.5 2.8,-11 4.1,-16.4l2.3,0.6z" class="st30"/>
    </g>
    <g id="svg_46"/>
   </g>
  </g>
  <g id="Layer_4">
   <g id="XMLID_4_">
    <g id="svg_47">
     <path id="svg_48" d="m71.2,52.9c0,0 0,0.1 0,0.2c-1.3,0.9 -1.5,2.5 -1.5,4.3c0.1,14.7 0,29.5 0,44.2c0,0.5 -0.3,1 -0.6,1.5c-0.1,0.2 -0.3,0.2 -0.4,0.4c-2.3,3 -5,3.7 -8.3,3.6c-6.9,-0.1 -13.9,-0.1 -20.8,-0.1l0,-3.8c3.4,0 6.7,0 10.1,0c-1.7,-6.7 -3.4,-13.3 -5.2,-19.9c-0.1,-0.2 -0.4,-0.5 -0.6,-0.5c-4.1,0 -8.3,0 -12.5,0l-2,-0.6c2.2,-9.8 4.5,-19.5 6.7,-29.3c2.9,0 5.6,0 8.5,0c3.7,15 7.3,30.1 11.1,45.5c0,-0.6 0.1,-0.8 0.1,-1c0,-13.6 0,-27.1 0,-40.7c0,-1.4 -0.2,-2.4 -1.2,-3.1c-0.2,-0.1 -0.3,-0.4 -0.6,-0.7c5.9,0 11.6,0 17.2,0zm-38.7,25.8c3.8,0 7.4,0 11.2,0c-2,-7.4 -4.1,-14.9 -6.2,-22.6c-1.7,7.8 -3.4,15.2 -5,22.6z" class="st31"/>
     <path id="svg_49" d="m39.8,103.1l0,3.8c-7.3,0 -14.7,0 -22,0c-0.5,0 -1,-0.2 -1.4,-0.5c-1.3,-1.1 -2.5,-2.2 -3.7,-3.3c-0.5,-0.4 -0.7,-0.9 -0.7,-1.7c0,-14.5 0,-29.1 0,-43.6c0,-1.9 0.4,-4 -1.7,-4.8c0.1,-0.1 0.2,-0.2 0.3,-0.3c5.6,0 11.2,0 16.8,0c0,0.1 0,0.2 0,0.2c-1.6,1 -1.8,2.6 -1.8,4.7c0.1,13.4 0,26.9 0,40.3c0,0.2 0,0.3 0.2,0.5c1.3,-5.5 2.5,-11 3.8,-16.4l2,0.6c-1.5,6.8 -3.1,13.6 -4.6,20.5c4.3,0 8.6,0 12.8,0z" class="st31"/>
    </g>
    <g id="svg_50"/>
   </g>
   <path id="svg_51" d="m49.9,103.1c-7.7,0 -15.2,0 -22.8,0c1.5,-6.9 3.1,-13.6 4.6,-20.5c4.2,0 8.3,0 12.5,0c0.2,0 0.6,0.3 0.6,0.5c1.7,6.6 3.4,13.3 5.1,20z" class="st27"/>
   <path id="svg_52" d="m43.7,78.7c-3.7,0 -7.4,0 -11.2,0c1.7,-7.5 3.3,-14.8 5,-22.6c2.1,7.8 4.1,15.2 6.2,22.6z" class="st27"/>
  </g>
 </g>
</svg>